# xmcd
#
# Track frame offsets: 
#        150
#        13748
#        28562
#        40838
#        53730
#        67759
#        80386
#        91936
#        106981
#        123418
#        139967
#        157969
#
# Disc length: 2166 seconds
#
# Revision: 0
# Processed by: cddbd v1.5.2PL0 Copyright (c) Steve Scherf et al.
# Submitted via: ExactAudioCopy v1.0b3
#
DISCID=8e08740c
DTITLE=Tejas Brothers - Live A Little More
DYEAR=2013
DGENRE=Tex Mex
TTITLE0=Red, White And Blue
TTITLE1=Don't Be So Mean
TTITLE2=The One And Lonely Me
TTITLE3=You Don't Need No Heart
TTITLE4=Yo Soy El Rey
TTITLE5=Swerve
TTITLE6=Rosa
TTITLE7=Down On My Knees
TTITLE8=That's Just Crazy
TTITLE9=Chasin' Down The Devil
TTITLE10=Live A Little More
TTITLE11=Thank You
EXTD=
EXTT0=
EXTT1=
EXTT2=
EXTT3=
EXTT4=
EXTT5=
EXTT6=
EXTT7=
EXTT8=
EXTT9=
EXTT10=
EXTT11=
PLAYORDER=
